<svg width="112" height="112" viewBox="0 0 112 112" fill="none" xmlns="http://www.w3.org/2000/svg">
<path fill-rule="evenodd" clip-rule="evenodd" d="M110 56C110 85.8234 85.8234 110 56 110C26.1766 110 2 85.8234 2 56C2 26.1766 26.1766 2 56 2C85.8234 2 110 26.1766 110 56ZM112 56C112 86.9279 86.9279 112 56 112C25.0721 112 0 86.9279 0 56C0 25.0721 25.0721 0 56 0C86.9279 0 112 25.0721 112 56ZM64 84C64 88.4183 60.4183 92 56 92C51.5817 92 48 88.4183 48 84C48 79.5817 51.5817 76 56 76C60.4183 76 64 79.5817 64 84ZM66 84C66 89.5229 61.5229 94 56 94C50.4772 94 46 89.5229 46 84C46 78.4771 50.4772 74 56 74C61.5229 74 66 78.4771 66 84ZM87 66C90.866 66 94 62.866 94 59C94 55.134 90.866 52 87 52C83.134 52 80 55.134 80 59C80 62.866 83.134 66 87 66ZM87 68C91.9706 68 96 63.9706 96 59C96 54.0294 91.9706 50 87 50C82.0294 50 78 54.0294 78 59C78 63.9706 82.0294 68 87 68ZM54 36C54 42.6274 48.6274 48 42 48C35.3726 48 30 42.6274 30 36C30 29.3726 35.3726 24 42 24C48.6274 24 54 29.3726 54 36ZM56 36C56 43.732 49.732 50 42 50C34.268 50 28 43.732 28 36C28 28.268 34.268 22 42 22C49.732 22 56 28.268 56 36ZM15 54C15 53.4477 15.4477 53 16 53C18.6277 53 21.3674 53.588 23.475 55.1688C25.6288 56.7841 27 59.3456 27 63C27 66.0956 28.1288 68.0341 29.725 69.2312C31.3674 70.463 33.6277 71 36 71C36.5523 71 37 71.4477 37 72C37 72.5523 36.5523 73 36 73C33.3723 73 30.6326 72.412 28.525 70.8313C26.3712 69.2159 25 66.6544 25 63C25 59.9044 23.8712 57.9659 22.275 56.7687C20.6326 55.537 18.3723 55 16 55C15.4477 55 15 54.5523 15 54ZM68 43C67.4477 43 67 42.5523 67 42C67 41.4477 67.4477 41 68 41C69.9629 41 71.4344 40.0536 72.4471 38.6896C73.478 37.301 74 35.5129 74 34C74 32.0844 74.6447 29.8724 75.9471 28.1182C77.2678 26.3393 79.2963 25 82 25C82.5523 25 83 25.4477 83 26C83 26.5523 82.5523 27 82 27C80.0371 27 78.5656 27.9464 77.5529 29.3104C76.522 30.699 76 32.4871 76 34C76 35.9156 75.3553 38.1276 74.0529 39.8818C72.7322 41.6607 70.7037 43 68 43ZM56.5547 55.1679C57.0142 55.4743 57.1384 56.0952 56.8321 56.5547L52.8321 62.5547C52.5257 63.0142 51.9048 63.1384 51.4453 62.8321C50.9858 62.5257 50.8616 61.9048 51.1679 61.4453L55.1679 55.4453C55.4743 54.9858 56.0952 54.8616 56.5547 55.1679ZM82.7071 81.2929L74.7071 73.2929C74.3166 72.9024 73.6834 72.9024 73.2929 73.2929C72.9024 73.6834 72.9024 74.3166 73.2929 74.7071L81.2929 82.7071C81.6834 83.0976 82.3166 83.0976 82.7071 82.7071C83.0976 82.3166 83.0976 81.6834 82.7071 81.2929Z" fill="url(#paint0_linear)"/>
<defs>
<linearGradient id="paint0_linear" x1="47.4444" y1="14" x2="113.316" y2="119.21" gradientUnits="userSpaceOnUse">
<stop stop-color="#00B1E8"/>
<stop offset="1" stop-color="#05E9C3"/>
</linearGradient>
</defs>
</svg>
