<svg width="19" height="19" viewBox="0 0 19 19" fill="none" xmlns="http://www.w3.org/2000/svg">
<path fill-rule="evenodd" clip-rule="evenodd" d="M9.5 18C14.1944 18 18 14.1944 18 9.5C18 4.80558 14.1944 1 9.5 1C4.80558 1 1 4.80558 1 9.5C1 14.1944 4.80558 18 9.5 18ZM9.5 19C14.7467 19 19 14.7467 19 9.5C19 4.25329 14.7467 0 9.5 0C4.25329 0 0 4.25329 0 9.5C0 14.7467 4.25329 19 9.5 19ZM9.5 4C9.77614 4 10 4.22386 10 4.5V5.5C10 5.77614 9.77614 6 9.5 6C9.22386 6 9 5.77614 9 5.5V4.5C9 4.22386 9.22386 4 9.5 4ZM10 8.5C10 8.22386 9.77614 8 9.5 8C9.22386 8 9 8.22386 9 8.5V14.5C9 14.7761 9.22386 15 9.5 15C9.77614 15 10 14.7761 10 14.5V8.5Z" fill="#888888"/>
</svg>
