<svg width="25" height="25" viewBox="0 0 25 25" fill="none" xmlns="http://www.w3.org/2000/svg">
<path fill-rule="evenodd" clip-rule="evenodd" d="M2 10.5C2 5.80558 5.80558 2 10.5 2C15.1944 2 19 5.80558 19 10.5C19 15.1944 15.1944 19 10.5 19C5.80558 19 2 15.1944 2 10.5ZM10.5 0C4.70101 0 0 4.70101 0 10.5C0 16.299 4.70101 21 10.5 21C13.0436 21 15.3759 20.0956 17.193 18.5907C17.2228 18.6314 17.2561 18.6703 17.2929 18.7071L22.2956 23.7098C22.6861 24.1004 23.3193 24.1004 23.7098 23.7098C24.1003 23.3193 24.1003 22.6862 23.7098 22.2956L18.7071 17.2929C18.6703 17.2561 18.6314 17.2228 18.5907 17.193C20.0956 15.3759 21 13.0436 21 10.5C21 4.70101 16.299 0 10.5 0ZM12 6.5C12 7.32843 11.3284 8 10.5 8C9.67157 8 9 7.32843 9 6.5C9 5.67157 9.67157 5 10.5 5C11.3284 5 12 5.67157 12 6.5ZM10.5 16C11.3284 16 12 15.3284 12 14.5C12 13.6716 11.3284 13 10.5 13C9.67157 13 9 13.6716 9 14.5C9 15.3284 9.67157 16 10.5 16ZM9 10.5C9 11.3284 8.32843 12 7.5 12C6.67157 12 6 11.3284 6 10.5C6 9.67157 6.67157 9 7.5 9C8.32843 9 9 9.67157 9 10.5ZM13.5 12C14.3284 12 15 11.3284 15 10.5C15 9.67157 14.3284 9 13.5 9C12.6716 9 12 9.67157 12 10.5C12 11.3284 12.6716 12 13.5 12Z" fill="url(#paint0_linear)"/>
<defs>
<linearGradient id="paint0_linear" x1="10.1678" y1="3.00034" x2="24.2849" y2="25.5479" gradientUnits="userSpaceOnUse">
<stop stop-color="#00B1E8"/>
<stop offset="1" stop-color="#05E9C3"/>
</linearGradient>
</defs>
</svg>
