<svg width="20" height="24" viewBox="0 0 20 24" fill="none" xmlns="http://www.w3.org/2000/svg">
<path fill-rule="evenodd" clip-rule="evenodd" d="M6.1221 0.521148C6.29734 0.199887 6.63406 0 7 0H15C15.3565 0 15.686 0.189758 15.8649 0.498073C16.0438 0.806388 16.0451 1.18664 15.8682 1.49614L12.7232 7H19C19.4045 7 19.7691 7.24364 19.9239 7.61732C20.0787 7.99099 19.9931 8.42111 19.7071 8.70711L4.70711 23.7071C4.37559 24.0386 3.85827 24.0953 3.46283 23.8435C3.06738 23.5916 2.89999 23.0989 3.06021 22.6583L6.5723 13H1C0.647063 13 0.320263 12.814 0.140101 12.5105C-0.0400604 12.207 -0.0468999 11.831 0.122105 11.5211L6.1221 0.521148ZM7.59363 2L2.68454 11H8C8.32621 11 8.63192 11.1591 8.81907 11.4263C9.00622 11.6935 9.05127 12.0352 8.93979 12.3417L6.48022 19.1056L16.5858 9H11C10.6435 9 10.314 8.81024 10.1351 8.50193C9.95617 8.19361 9.9549 7.81336 10.1318 7.50386L13.2768 2H7.59363Z" fill="url(#paint0_linear)"/>
<defs>
<linearGradient id="paint0_linear" x1="8.47223" y1="3" x2="23.5433" y2="23.0595" gradientUnits="userSpaceOnUse">
<stop stop-color="#00B1E8"/>
<stop offset="1" stop-color="#05E9C3"/>
</linearGradient>
</defs>
</svg>
